<svg xmlns="http://www.w3.org/2000/svg" width="1em" height="1em" fill="none" aria-hidden="true" class="h-16 w-16 cursor-pointer" viewBox="0 0 77 100"><rect width="10.546" height="14.824" x="1.5" y="42.139" fill="#fff" stroke="#fff" stroke-width="3" rx="5.273"/><rect width="10.546" height="14.824" x="64.954" y="42.139" fill="#fff" stroke="#fff" stroke-width="3" rx="5.273"/><path fill="#fff" stroke="#fff" stroke-linecap="round" stroke-linejoin="round" stroke-width="6" d="M38.5 22.1016L38.5 15.3284"/><path fill="#fff" stroke="#fff" stroke-linecap="round" stroke-linejoin="round" stroke-width="6" d="M48.4814 79.8516C48.4814 79.8516 66.662 75.9302 68.4444 87.3376"/><path fill="#fff" stroke="#fff" stroke-linecap="round" stroke-linejoin="round" stroke-width="6" d="M27.0928 79.8516C27.0928 79.8516 8.91224 75.9302 7.12984 87.3376"/><path fill="#fff" stroke="#fff" stroke-linejoin="round" d="M38.4998 99.4581C14.259 99.4581 19.9627 83.7925 19.9628 73.4351L57.0368 73.4351C56.3238 83.7729 63.4535 99.4581 38.4998 99.4581Z"/><rect width="67.018" height="44.204" x="4.991" y="27.093" fill="#fff" rx="22.102"/><circle cx="24.597" cy="49.551" r="8.199" fill="#fff"/><circle cx="52.403" cy="49.551" r="8.199" fill="#fff"/><circle cx="38.5" cy="7.843" r="4.843" fill="#fff" stroke="#fff" stroke-width="6"/></svg>